<?xml version="1.0" standalone="no"?>
<!DOCTYPE svg PUBLIC "-//W3C//DTD SVG 20010904//EN"
 "http://www.w3.org/TR/2001/REC-SVG-20010904/DTD/svg10.dtd">
<svg version="1.0" xmlns="http://www.w3.org/2000/svg"
 width="512.000000pt" height="512.000000pt" viewBox="0 0 512.000000 512.000000"
 preserveAspectRatio="xMidYMid meet">
<metadata>
Created by potrace 1.14, written by Peter Selinger 2001-2017
</metadata>
<g transform="translate(0.000000,512.000000) scale(0.100000,-0.100000)"
fill="#000000" stroke="none">
<path d="M2330 4679 c-720 -81 -1353 -527 -1683 -1185 -86 -173 -156 -392
-194 -609 -24 -141 -24 -519 0 -660 81 -464 282 -858 603 -1179 176 -176 366
-310 589 -417 583 -279 1290 -277 1853 5 l84 42 -39 50 c-168 213 -689 932
-876 1209 -484 716 -610 900 -622 913 -9 10 -13 -122 -18 -614 -6 -734 6 -666
-127 -672 -78 -4 -80 -4 -111 28 l-32 32 6 426 c4 235 7 615 7 844 l0 418 27
17 c20 14 47 18 108 18 44 0 88 -3 97 -7 20 -8 129 -170 1028 -1533 370 -561
678 -1026 684 -1033 14 -15 83 30 211 138 353 298 593 674 706 1105 53 203 63
289 63 540 0 245 -10 331 -59 526 -37 144 -79 259 -150 404 -111 230 -245 414
-436 601 -412 401 -938 608 -1529 603 -63 -1 -149 -5 -190 -10z m966 -1284
c45 -9 45 -9 42 -801 l-3 -751 -127 196 -128 196 0 556 c0 543 0 557 20 582
11 14 33 28 48 30 27 4 109 -1 148 -8z"/>
</g>
</svg>
