<?xml version="1.0" standalone="no"?>
<!DOCTYPE svg PUBLIC "-//W3C//DTD SVG 20010904//EN"
 "http://www.w3.org/TR/2001/REC-SVG-20010904/DTD/svg10.dtd">
<svg version="1.0" xmlns="http://www.w3.org/2000/svg"
 width="700.000000pt" height="700.000000pt" viewBox="0 0 700.000000 700.000000"
 preserveAspectRatio="xMidYMid meet">
<metadata>
Created by potrace 1.11, written by Peter Selinger 2001-2013
</metadata>
<g transform="translate(0.000000,700.000000) scale(0.100000,-0.100000)"
fill="#000000" stroke="none">
<path d="M3080 6974 c-792 -95 -1527 -461 -2090 -1040 -536 -552 -867 -1242
-964 -2012 -22 -169 -22 -674 -1 -839 79 -618 307 -1189 664 -1666 543 -725
1307 -1199 2191 -1361 244 -44 303 -48 680 -43 329 4 366 6 500 31 367 66 645
153 950 297 173 82 169 54 32 237 -65 86 -248 333 -407 547 -159 215 -354 478
-434 585 -152 204 -184 251 -958 1395 -593 877 -606 896 -615 887 -4 -4 -8
-462 -10 -1017 -3 -955 -4 -1012 -21 -1038 -37 -56 -70 -67 -204 -67 l-122 0
-41 38 -40 39 0 1386 0 1386 35 35 c20 21 49 38 70 42 56 10 267 0 294 -15 13
-7 195 -272 416 -604 403 -608 1947 -2947 2223 -3367 85 -129 158 -239 162
-244 10 -10 147 83 295 200 135 108 434 406 536 534 421 531 668 1115 754
1783 21 165 21 670 -1 839 -122 963 -620 1815 -1398 2393 -286 212 -597 375
-939 494 -233 80 -513 143 -762 171 -131 14 -657 11 -795 -6z m1629 -2098 c15
-8 37 -28 47 -43 18 -27 19 -69 22 -1273 2 -1060 0 -1242 -12 -1230 -7 8 -106
158 -220 332 l-206 318 2 912 c3 877 4 914 22 941 23 34 48 49 101 58 59 11
211 1 244 -15z"/>
</g>
</svg>
